<svg xmlns="http://www.w3.org/2000/svg" width="116.006" height="154.675" viewBox="0 0 116.006 154.675">
  <defs>
    <style>
      .cls-1 {
        fill: #fff;
      }
    </style>
  </defs>
  <path id="code-branch-solid" class="cls-1" d="M116.006,43.5A24.168,24.168,0,1,0,85.041,66.7c-.181,4.864-1.269,8.61-3.323,11.147-4.652,5.8-14.894,6.767-25.739,7.764-8.519.785-17.341,1.631-24.561,5.105v-43.5a24.168,24.168,0,1,0-14.5,0v60.208a24.222,24.222,0,1,0,15.951.544,10.632,10.632,0,0,1,4.5-4.048c4.894-2.477,12.2-3.142,19.969-3.867,12.749-1.178,27.189-2.538,35.708-13.111,4.229-5.257,6.374-12.024,6.525-20.513A24.266,24.266,0,0,0,116.006,43.5ZM24.168,19.334a4.834,4.834,0,1,1-4.834,4.834A4.848,4.848,0,0,1,24.168,19.334Zm0,116.006A4.834,4.834,0,1,1,29,130.507,4.848,4.848,0,0,1,24.168,135.341Zm67.67-96.672A4.834,4.834,0,1,1,87,43.5,4.848,4.848,0,0,1,91.838,38.669Z"/>
</svg>
