<svg xmlns="http://www.w3.org/2000/svg" width="135.341" height="154.675" viewBox="0 0 135.341 154.675">
  <defs>
    <style>
      .cls-1 {
        fill: #fff;
      }
    </style>
  </defs>
  <path id="train-solid" class="cls-1" d="M135.341,29v77.337c0,15.653-18.617,29-39.28,29l19.026,15.021a2.419,2.419,0,0,1-1.5,4.314H21.751a2.419,2.419,0,0,1-1.5-4.314L39.28,135.341c-20.6,0-39.28-13.306-39.28-29V29C0,12.985,19.334,0,38.669,0h58C116.308,0,135.341,12.985,135.341,29Zm-14.5,41.086V36.252a7.25,7.25,0,0,0-7.25-7.25H21.751a7.25,7.25,0,0,0-7.25,7.25V70.087a7.25,7.25,0,0,0,7.25,7.25h91.838A7.25,7.25,0,0,0,120.84,70.087ZM67.67,89.421a16.918,16.918,0,1,0,16.918,16.918A16.918,16.918,0,0,0,67.67,89.421Z"/>
</svg>
